<svg xmlns="http://www.w3.org/2000/svg" width="26.359" height="23.214" viewBox="0 0 26.359 23.214">
  <g id="Icon_feather-box" data-name="Icon feather-box" transform="translate(-2.82 -1.475)">
    <path id="Path_4" data-name="Path 4" d="M27.5,17.048V9.021a1.98,1.98,0,0,0-1.278-1.736L17.278,3.272a3.171,3.171,0,0,0-2.556,0L5.778,7.285A1.98,1.98,0,0,0,4.5,9.021v8.027a1.98,1.98,0,0,0,1.278,1.736L14.722,22.8a3.171,3.171,0,0,0,2.556,0l8.944-4.013A1.98,1.98,0,0,0,27.5,17.048Z" fill="none" stroke="#000" stroke-linecap="round" stroke-linejoin="round" stroke-width="3"/>
    <path id="Path_5" data-name="Path 5" d="M4.905,10.44,16,18.015,27.095,10.44" transform="translate(0 -3.276)" fill="none" stroke="#000" stroke-linecap="round" stroke-linejoin="round" stroke-width="3"/>
    <path id="Path_6" data-name="Path 6" d="M18,33.12V18" transform="translate(-2 -9.931)" fill="none" stroke="#000" stroke-linecap="round" stroke-linejoin="round" stroke-width="3"/>
  </g>
</svg>
