<svg xmlns="http://www.w3.org/2000/svg" width="37.04" height="31.496" viewBox="0 0 37.04 31.496">
  <path id="Icon_awesome-home" data-name="Icon awesome-home" d="M18.028,10.425,6.173,21.1V32.625A1.08,1.08,0,0,0,7.2,33.75l7.205-.02A1.081,1.081,0,0,0,15.431,32.6v-6.73a1.08,1.08,0,0,1,1.029-1.125h4.115A1.08,1.08,0,0,1,21.6,25.875V32.6a1.181,1.181,0,0,0,.3.8.986.986,0,0,0,.729.331l7.2.022a1.08,1.08,0,0,0,1.029-1.125V21.094L19.012,10.425A.732.732,0,0,0,18.028,10.425Zm18.726,7.257-5.375-4.845V3.1a.81.81,0,0,0-.772-.844h-3.6a.81.81,0,0,0-.772.844V8.2L20.478,3.023a2.885,2.885,0,0,0-3.922,0L.279,17.681a.9.9,0,0,0-.1,1.188l1.64,2.18a.755.755,0,0,0,.522.3.728.728,0,0,0,.565-.189L18.028,7.542a.732.732,0,0,1,.984,0L34.137,21.164a.727.727,0,0,0,1.087-.112l1.64-2.18a.9.9,0,0,0,.172-.62.869.869,0,0,0-.281-.57Z" transform="translate(0.001 -2.254)"/>
</svg>
