<svg xmlns="http://www.w3.org/2000/svg" width="40.5" height="36" viewBox="0 0 40.5 36">
  <path id="Icon_awesome-boxes" data-name="Icon awesome-boxes" d="M39.375,20.25H33.75V27L31.5,25.5,29.25,27V20.25H23.625A1.128,1.128,0,0,0,22.5,21.375v13.5A1.128,1.128,0,0,0,23.625,36h15.75A1.128,1.128,0,0,0,40.5,34.875v-13.5A1.128,1.128,0,0,0,39.375,20.25Zm-27-4.5h15.75a1.128,1.128,0,0,0,1.125-1.125V1.125A1.128,1.128,0,0,0,28.125,0H22.5V6.75l-2.25-1.5L18,6.75V0H12.375A1.128,1.128,0,0,0,11.25,1.125v13.5A1.128,1.128,0,0,0,12.375,15.75Zm4.5,4.5H11.25V27L9,25.5,6.75,27V20.25H1.125A1.128,1.128,0,0,0,0,21.375v13.5A1.128,1.128,0,0,0,1.125,36h15.75A1.128,1.128,0,0,0,18,34.875v-13.5A1.128,1.128,0,0,0,16.875,20.25Z"/>
</svg>
