<svg xmlns="http://www.w3.org/2000/svg" width="36.572" height="29.258" viewBox="0 0 36.572 29.258">
  <path id="Icon_awesome-truck" data-name="Icon awesome-truck" d="M35.658,20.115h-.914V13.937A2.743,2.743,0,0,0,33.938,12L28.229,6.292a2.743,2.743,0,0,0-1.937-.806h-2.52V2.743A2.744,2.744,0,0,0,21.029,0H2.743A2.744,2.744,0,0,0,0,2.743V21.029a2.744,2.744,0,0,0,2.743,2.743h.914a5.486,5.486,0,0,0,10.972,0h7.314a5.486,5.486,0,0,0,10.972,0h2.743a.917.917,0,0,0,.914-.914V21.029A.917.917,0,0,0,35.658,20.115Zm-26.515,6.4a2.743,2.743,0,1,1,2.743-2.743A2.744,2.744,0,0,1,9.143,26.515Zm18.286,0a2.743,2.743,0,1,1,2.743-2.743A2.744,2.744,0,0,1,27.429,26.515ZM32,14.629H23.772v-6.4h2.52L32,13.937Z"/>
</svg>
