<svg xmlns="http://www.w3.org/2000/svg" xmlns:xlink="http://www.w3.org/1999/xlink" width="1920" height="1080" viewBox="0 0 1920 1080">
  <defs>
    <clipPath id="clip-Management_Data_Barang_-_Tambah_3">
      <rect width="1920" height="1080"/>
    </clipPath>
  </defs>
  <g id="Management_Data_Barang_-_Tambah_3" data-name="Management Data Barang - Tambah – 3" clip-path="url(#clip-Management_Data_Barang_-_Tambah_3)">
    <rect width="1920" height="1080" fill="#fff"/>
    <g id="Ellipse_7" data-name="Ellipse 7" transform="translate(682 210)" fill="#fff" stroke="#707070" stroke-width="1">
      <circle cx="22" cy="22" r="22" stroke="none"/>
      <circle cx="22" cy="22" r="21.5" fill="none"/>
    </g>
    <g id="Rectangle_1" data-name="Rectangle 1" fill="#fff" stroke="#000" stroke-width="1">
      <rect width="101" height="1080" stroke="none"/>
      <rect x="0.5" y="0.5" width="100" height="1079" fill="none"/>
    </g>
    <g id="Group_12" data-name="Group 12">
      <text id="I" transform="translate(49 83)" font-size="18" font-family="Roboto-Bold, Roboto" font-weight="700"><tspan x="-2.624" y="0">I</tspan></text>
      <text id="S" transform="translate(49 129)" font-size="18" font-family="Roboto-Bold, Roboto" font-weight="700"><tspan x="-5.533" y="0">S</tspan></text>
      <text id="S-2" data-name="S" transform="translate(49 171)" font-size="18" font-family="Roboto-Bold, Roboto" font-weight="700"><tspan x="-5.533" y="0">S</tspan></text>
      <text id="Y" transform="translate(49 194)" font-size="18" font-family="Roboto-Bold, Roboto" font-weight="700"><tspan x="-5.563" y="0">Y</tspan></text>
      <text id="S-3" data-name="S" transform="translate(49 217)" font-size="18" font-family="Roboto-Bold, Roboto" font-weight="700"><tspan x="-5.533" y="0">S</tspan></text>
      <text id="T" transform="translate(49 240)" font-size="18" font-family="Roboto-Bold, Roboto" font-weight="700"><tspan x="-5.568" y="0">T</tspan></text>
      <text id="E" transform="translate(49 263)" font-size="18" font-family="Roboto-Bold, Roboto" font-weight="700"><tspan x="-5.063" y="0">E</tspan></text>
      <text id="M" transform="translate(49 287)" font-size="18" font-family="Roboto-Bold, Roboto" font-weight="700"><tspan x="-7.884" y="0">M</tspan></text>
      <text id="M-2" data-name="M" transform="translate(49 106)" font-size="18" font-family="Roboto-Bold, Roboto" font-weight="700"><tspan x="-7.884" y="0">M</tspan></text>
    </g>
    <path id="Icon_open-account-logout" data-name="Icon open-account-logout" d="M11.625,0V3.875h15.5V23.25h-15.5v3.875H31V0ZM7.75,7.75,0,13.563l7.75,5.813V15.5h15.5V11.625H7.75Z" transform="translate(34 994.875)"/>
    <path id="Icon_material-person" data-name="Icon material-person" d="M25,25a9.5,9.5,0,1,0-9.5-9.5A9.5,9.5,0,0,0,25,25Zm0,4.75c-6.341,0-19,3.183-19,9.5V44H44V39.25C44,32.933,31.341,29.75,25,29.75Z" transform="translate(1795 54)"/>
    <text id="Arya_Gamas" data-name="Arya Gamas" transform="translate(1642 76)" font-size="20" font-family="Roboto-Bold, Roboto" font-weight="700"><tspan x="0" y="0">Arya Gamas</tspan></text>
    <text id="Warehouse_operator" data-name="Warehouse operator" transform="translate(1642 96)" font-size="16" font-family="Roboto-Regular, Roboto"><tspan x="0" y="0">Warehouse operator</tspan></text>
    <path id="Icon_material-menu" data-name="Icon material-menu" d="M4.5,35.5H37.306V31.083H4.5Zm0-11.042H37.306V20.042H4.5ZM4.5,9v4.417H37.306V9Z" transform="translate(157.4 45)"/>
    <text id="Manajemen_Data_Barang" data-name="Manajemen Data Barang" transform="translate(712 181)" font-size="45" font-family="Roboto-Bold, Roboto" font-weight="700"><tspan x="0" y="0">Manajemen Data Barang</tspan></text>
    <g id="Group_13" data-name="Group 13" transform="translate(0 5)">
      <path id="Icon_awesome-home" data-name="Icon awesome-home" d="M18.028,10.425,6.173,21.1V32.625A1.08,1.08,0,0,0,7.2,33.75l7.205-.02A1.081,1.081,0,0,0,15.431,32.6v-6.73a1.08,1.08,0,0,1,1.029-1.125h4.115A1.08,1.08,0,0,1,21.6,25.875V32.6a1.181,1.181,0,0,0,.3.8.986.986,0,0,0,.729.331l7.2.022a1.08,1.08,0,0,0,1.029-1.125V21.094L19.012,10.425A.732.732,0,0,0,18.028,10.425Zm18.726,7.257-5.375-4.845V3.1a.81.81,0,0,0-.772-.844h-3.6a.81.81,0,0,0-.772.844V8.2L20.478,3.023a2.885,2.885,0,0,0-3.922,0L.279,17.681a.9.9,0,0,0-.1,1.188l1.64,2.18a.755.755,0,0,0,.522.3.728.728,0,0,0,.565-.189L18.028,7.542a.732.732,0,0,1,.984,0L34.137,21.164a.727.727,0,0,0,1.087-.112l1.64-2.18a.9.9,0,0,0,.172-.62.869.869,0,0,0-.281-.57Z" transform="translate(31.051 370.998)"/>
      <path id="Icon_metro-stack" data-name="Icon metro-stack" d="M33.419,11.568,17.995,3.856,2.571,11.568,17.995,19.28ZM17.995,6.416l10.3,5.152-10.3,5.152L7.69,11.568ZM30.33,15.808l3.09,1.545L17.995,25.064,2.571,17.352l3.09-1.545,12.335,6.167Zm0,5.784,3.09,1.545L17.995,30.849,2.571,23.136l3.09-1.545,12.335,6.167Z" transform="translate(30.514 446)"/>
      <path id="Icon_awesome-truck" data-name="Icon awesome-truck" d="M35.658,20.115h-.914V13.937A2.743,2.743,0,0,0,33.938,12L28.229,6.292a2.743,2.743,0,0,0-1.937-.806h-2.52V2.743A2.744,2.744,0,0,0,21.029,0H2.743A2.744,2.744,0,0,0,0,2.743V21.029a2.744,2.744,0,0,0,2.743,2.743h.914a5.486,5.486,0,0,0,10.972,0h7.314a5.486,5.486,0,0,0,10.972,0h2.743a.917.917,0,0,0,.914-.914V21.029A.917.917,0,0,0,35.658,20.115Zm-26.515,6.4a2.743,2.743,0,1,1,2.743-2.743A2.744,2.744,0,0,1,9.143,26.515Zm18.286,0a2.743,2.743,0,1,1,2.743-2.743A2.744,2.744,0,0,1,27.429,26.515ZM32,14.629H23.772v-6.4h2.52L32,13.937Z" transform="translate(31.518 592.914)"/>
      <g id="Icon_feather-refresh-ccw" data-name="Icon feather-refresh-ccw" transform="translate(24.373 516.634)">
        <path id="Path_1" data-name="Path 1" d="M1.5,6V18.444H13.944" transform="translate(-1.5 -3.931)" fill="none" stroke="#000" stroke-linecap="round" stroke-linejoin="round" stroke-width="3"/>
        <path id="Path_2" data-name="Path 2" d="M37.944,33.444V21H25.5" transform="translate(7.683 1.809)" fill="none" stroke="#000" stroke-linecap="round" stroke-linejoin="round" stroke-width="3"/>
        <path id="Path_3" data-name="Path 3" d="M41.921,16.942a18.665,18.665,0,0,0-30.8-6.968L1.5,19.016m45.627,8.3L37.5,36.354a18.665,18.665,0,0,1-30.8-6.968" transform="translate(-1.5 -4.503)" fill="none" stroke="#000" stroke-linecap="round" stroke-linejoin="round" stroke-width="3"/>
      </g>
    </g>
    <path id="Icon_material-note" data-name="Icon material-note" d="M33,15,24,6H6A3.009,3.009,0,0,0,3,9V27.015A3,3,0,0,0,6,30l24-.015A3,3,0,0,0,33,27ZM22.5,8.25l8.25,8.25H22.5Z" transform="translate(31 733)" fill="none" stroke="#fff" stroke-width="1"/>
    <g id="Group_14" data-name="Group 14" transform="translate(-446 329)">
      <g id="Rectangle_10" data-name="Rectangle 10" transform="translate(477 420)" fill="#fff" stroke="#000" stroke-width="2">
        <rect width="24" height="32" stroke="none"/>
        <rect x="1" y="1" width="22" height="30" fill="none"/>
      </g>
      <g id="Rectangle_11" data-name="Rectangle 11" transform="translate(480 416)" fill="#fff" stroke="#000" stroke-width="2">
        <rect width="25" height="32" stroke="none"/>
        <rect x="1" y="1" width="23" height="30" fill="none"/>
      </g>
      <g id="Rectangle_12" data-name="Rectangle 12" transform="translate(485 410)" fill="#fff" stroke="#000" stroke-width="2">
        <rect width="24" height="31" stroke="none"/>
        <rect x="1" y="1" width="22" height="29" fill="none"/>
      </g>
      <line id="Line_2" data-name="Line 2" x2="15.759" transform="translate(489.281 415.466)" fill="none" stroke="#000" stroke-width="2"/>
      <line id="Line_3" data-name="Line 3" x2="15.759" transform="translate(489.281 419.867)" fill="none" stroke="#000" stroke-width="2"/>
      <line id="Line_4" data-name="Line 4" x2="15.759" transform="translate(489.281 424.268)" fill="none" stroke="#000" stroke-width="2"/>
      <line id="Line_5" data-name="Line 5" x2="15.759" transform="translate(489.281 428.67)" fill="none" stroke="#000" stroke-width="2"/>
      <line id="Line_6" data-name="Line 6" x2="15.759" transform="translate(489.281 433.071)" fill="none" stroke="#000" stroke-width="2"/>
      <line id="Line_7" data-name="Line 7" x2="15.759" transform="translate(489.281 437.472)" fill="none" stroke="#000" stroke-width="2"/>
    </g>
    <g id="Icon_feather-box" data-name="Icon feather-box" transform="translate(31.5 526.997)">
      <path id="Path_4" data-name="Path 4" d="M27.5,17.048V9.021a1.98,1.98,0,0,0-1.278-1.736L17.278,3.272a3.171,3.171,0,0,0-2.556,0L5.778,7.285A1.98,1.98,0,0,0,4.5,9.021v8.027a1.98,1.98,0,0,0,1.278,1.736L14.722,22.8a3.171,3.171,0,0,0,2.556,0l8.944-4.013A1.98,1.98,0,0,0,27.5,17.048Z" fill="none" stroke="#000" stroke-linecap="round" stroke-linejoin="round" stroke-width="3"/>
      <path id="Path_5" data-name="Path 5" d="M4.905,10.44,16,18.015,27.095,10.44" transform="translate(0 -3.276)" fill="none" stroke="#000" stroke-linecap="round" stroke-linejoin="round" stroke-width="3"/>
      <path id="Path_6" data-name="Path 6" d="M18,33.12V18" transform="translate(-2 -9.931)" fill="none" stroke="#000" stroke-linecap="round" stroke-linejoin="round" stroke-width="3"/>
    </g>
    <path id="Icon_awesome-boxes" data-name="Icon awesome-boxes" d="M39.375,20.25H33.75V27L31.5,25.5,29.25,27V20.25H23.625A1.128,1.128,0,0,0,22.5,21.375v13.5A1.128,1.128,0,0,0,23.625,36h15.75A1.128,1.128,0,0,0,40.5,34.875v-13.5A1.128,1.128,0,0,0,39.375,20.25Zm-27-4.5h15.75a1.128,1.128,0,0,0,1.125-1.125V1.125A1.128,1.128,0,0,0,28.125,0H22.5V6.75l-2.25-1.5L18,6.75V0H12.375A1.128,1.128,0,0,0,11.25,1.125v13.5A1.128,1.128,0,0,0,12.375,15.75Zm4.5,4.5H11.25V27L9,25.5,6.75,27V20.25H1.125A1.128,1.128,0,0,0,0,21.375v13.5A1.128,1.128,0,0,0,1.125,36h15.75A1.128,1.128,0,0,0,18,34.875v-13.5A1.128,1.128,0,0,0,16.875,20.25Z" transform="translate(29.15 666)"/>
    <g id="Group_15" data-name="Group 15" transform="translate(-33 8)">
      <line id="Line_8" data-name="Line 8" x2="1527" transform="translate(274.5 378.5)" fill="none" stroke="#707070" stroke-width="1"/>
      <line id="Line_8-2" data-name="Line 8" x2="1527" transform="translate(274.5 453.5)" fill="none" stroke="#707070" stroke-width="1"/>
      <line id="Line_8-3" data-name="Line 8" x2="1527" transform="translate(274.5 528.5)" fill="none" stroke="#707070" stroke-width="1"/>
      <line id="Line_8-4" data-name="Line 8" x2="1527" transform="translate(274.5 603.5)" fill="none" stroke="#707070" stroke-width="1"/>
      <line id="Line_8-5" data-name="Line 8" x2="1527" transform="translate(274.5 678.5)" fill="none" stroke="#707070" stroke-width="1"/>
      <line id="Line_8-6" data-name="Line 8" x2="1527" transform="translate(274.5 753.5)" fill="none" stroke="#707070" stroke-width="1"/>
      <line id="Line_8-7" data-name="Line 8" x2="1527" transform="translate(274.5 828.5)" fill="none" stroke="#707070" stroke-width="1"/>
      <line id="Line_9" data-name="Line 9" x2="1527" transform="translate(274.5 978.5)" fill="none" stroke="#707070" stroke-width="1"/>
      <line id="Line_8-8" data-name="Line 8" x2="1527" transform="translate(274.5 903.5)" fill="none" stroke="#707070" stroke-width="1"/>
    </g>
    <g id="Group_17" data-name="Group 17" transform="translate(-33 8)">
      <line id="Line_8-9" data-name="Line 8" x2="1527" transform="translate(274.5 378.5)" fill="none" stroke="#707070" stroke-width="1"/>
      <line id="Line_8-10" data-name="Line 8" x2="1527" transform="translate(274.5 453.5)" fill="none" stroke="#707070" stroke-width="1"/>
      <line id="Line_8-11" data-name="Line 8" x2="1527" transform="translate(274.5 528.5)" fill="none" stroke="#707070" stroke-width="1"/>
      <line id="Line_8-12" data-name="Line 8" x2="1527" transform="translate(274.5 603.5)" fill="none" stroke="#707070" stroke-width="1"/>
      <line id="Line_8-13" data-name="Line 8" x2="1527" transform="translate(274.5 678.5)" fill="none" stroke="#707070" stroke-width="1"/>
      <line id="Line_8-14" data-name="Line 8" x2="1527" transform="translate(274.5 753.5)" fill="none" stroke="#707070" stroke-width="1"/>
      <line id="Line_8-15" data-name="Line 8" x2="1527" transform="translate(274.5 828.5)" fill="none" stroke="#707070" stroke-width="1"/>
      <path id="Path_7" data-name="Path 7" d="M0,0H1527" transform="translate(274.5 978.5)" fill="none" stroke="#707070" stroke-width="1"/>
      <path id="Path_8" data-name="Path 8" d="M0,0H1527" transform="translate(274.5 1053.5)" fill="none" stroke="#707070" stroke-width="1"/>
      <line id="Line_8-16" data-name="Line 8" x2="1527" transform="translate(274.5 903.5)" fill="none" stroke="#707070" stroke-width="1"/>
    </g>
    <g id="Group_16" data-name="Group 16" transform="translate(-27 66)">
      <text id="Kode_Barang" data-name="Kode Barang" transform="translate(340 297)" font-size="20" font-family="Roboto-Bold, Roboto" font-weight="700"><tspan x="-57.314" y="0">Kode Barang</tspan></text>
      <text id="Nama_Barang" data-name="Nama Barang" transform="translate(553 297)" font-size="20" font-family="Roboto-Bold, Roboto" font-weight="700"><tspan x="-60.845" y="0">Nama Barang</tspan></text>
      <text id="Jenis_Barang" data-name="Jenis  Barang" transform="translate(892 297)" font-size="20" font-family="Roboto-Bold, Roboto" font-weight="700"><tspan x="-61.279" y="0" xml:space="preserve">Jenis  Barang</tspan></text>
      <text id="Satuan_Unit_" data-name="Satuan Unit " transform="translate(1231 297)" font-size="20" font-family="Roboto-Bold, Roboto" font-weight="700"><tspan x="-54.639" y="0">Satuan Unit </tspan></text>
      <text id="Kuantitas" transform="translate(1509 297)" font-size="20" font-family="Roboto-Bold, Roboto" font-weight="700"><tspan x="-42.705" y="0">Kuantitas</tspan></text>
      <text id="Harga_Jual" data-name="Harga Jual" transform="translate(1718 297)" font-size="20" font-family="Roboto-Bold, Roboto" font-weight="700"><tspan x="-48.828" y="0">Harga Jual</tspan></text>
    </g>
    <text id="MY_-_001_" data-name="MY - 001 " transform="translate(295 439)" font-size="18" font-family="Roboto-Bold, Roboto" font-weight="700"><tspan x="-39.151" y="0">MY - 001 </tspan></text>
    <text id="MY_-_001_2" data-name="MY - 001 " transform="translate(295 517)" font-size="18" font-family="Roboto-Bold, Roboto" font-weight="700"><tspan x="-39.151" y="0">MY - 001 </tspan></text>
    <text id="MY_-_001_3" data-name="MY - 001 " transform="translate(295 595)" font-size="18" font-family="Roboto-Bold, Roboto" font-weight="700"><tspan x="-39.151" y="0">MY - 001 </tspan></text>
    <text id="MY_-_001_4" data-name="MY - 001 " transform="translate(295 663)" font-size="18" font-family="Roboto-Bold, Roboto" font-weight="700"><tspan x="-39.151" y="0">MY - 001 </tspan></text>
    <text id="MY_-_001_5" data-name="MY - 001 " transform="translate(295 741)" font-size="18" font-family="Roboto-Bold, Roboto" font-weight="700"><tspan x="-39.151" y="0">MY - 001 </tspan></text>
    <text id="Minyak_Kayu_Putih" data-name="Minyak Kayu Putih" transform="translate(533 439)" font-size="18" font-family="Roboto-Regular, Roboto"><tspan x="-73.657" y="0">Minyak Kayu Putih</tspan></text>
    <text id="Lorem_ipsum" data-name="Lorem ipsum" transform="translate(533 517)" font-size="18" font-family="Roboto-Regular, Roboto"><tspan x="-52.629" y="0">Lorem ipsum</tspan></text>
    <text id="Minyak_Kayu_Putih-2" data-name="Minyak Kayu Putih" transform="translate(533 595)" font-size="18" font-family="Roboto-Regular, Roboto"><tspan x="-73.657" y="0">Minyak Kayu Putih</tspan></text>
    <text id="Minyak_Kayu_Putih-3" data-name="Minyak Kayu Putih" transform="translate(533 663)" font-size="18" font-family="Roboto-Regular, Roboto"><tspan x="-73.657" y="0">Minyak Kayu Putih</tspan></text>
    <text id="Minyak_Kayu_Putih-4" data-name="Minyak Kayu Putih" transform="translate(533 741)" font-size="18" font-family="Roboto-Regular, Roboto"><tspan x="-73.657" y="0">Minyak Kayu Putih</tspan></text>
    <text id="Peralatan_Rumah_Tangga" data-name="Peralatan Rumah Tangga" transform="translate(870 441)" font-size="20" font-family="Roboto-Regular, Roboto"><tspan x="-111.494" y="0">Peralatan Rumah Tangga</tspan></text>
    <text id="Peralatan_Rumah_Tangga-2" data-name="Peralatan Rumah Tangga" transform="translate(870 519)" font-size="20" font-family="Roboto-Regular, Roboto"><tspan x="-111.494" y="0">Peralatan Rumah Tangga</tspan></text>
    <text id="Peralatan_Rumah_Tangga-3" data-name="Peralatan Rumah Tangga" transform="translate(870 597)" font-size="20" font-family="Roboto-Regular, Roboto"><tspan x="-111.494" y="0">Peralatan Rumah Tangga</tspan></text>
    <text id="Peralatan_Rumah_Tangga-4" data-name="Peralatan Rumah Tangga" transform="translate(870 665)" font-size="20" font-family="Roboto-Regular, Roboto"><tspan x="-111.494" y="0">Peralatan Rumah Tangga</tspan></text>
    <text id="Peralatan_Rumah_Tangga-5" data-name="Peralatan Rumah Tangga" transform="translate(870 743)" font-size="20" font-family="Roboto-Regular, Roboto"><tspan x="-111.494" y="0">Peralatan Rumah Tangga</tspan></text>
    <text id="Box" transform="translate(1195 441)" font-size="20" font-family="Roboto-Regular, Roboto"><tspan x="-16.782" y="0">Box</tspan></text>
    <text id="Box-2" data-name="Box" transform="translate(1195 519)" font-size="20" font-family="Roboto-Regular, Roboto"><tspan x="-16.782" y="0">Box</tspan></text>
    <text id="Box-3" data-name="Box" transform="translate(1195 597)" font-size="20" font-family="Roboto-Regular, Roboto"><tspan x="-16.782" y="0">Box</tspan></text>
    <text id="Box-4" data-name="Box" transform="translate(1195 665)" font-size="20" font-family="Roboto-Regular, Roboto"><tspan x="-16.782" y="0">Box</tspan></text>
    <text id="Box-5" data-name="Box" transform="translate(1195 743)" font-size="20" font-family="Roboto-Regular, Roboto"><tspan x="-16.782" y="0">Box</tspan></text>
    <text id="_1502" data-name="1502" transform="translate(1474 441)" font-size="20" font-family="Roboto-Regular, Roboto"><tspan x="-22.461" y="0">1502</tspan></text>
    <text id="_1502-2" data-name="1502" transform="translate(1474 519)" font-size="20" font-family="Roboto-Regular, Roboto"><tspan x="-22.461" y="0">1502</tspan></text>
    <text id="_1502-3" data-name="1502" transform="translate(1474 597)" font-size="20" font-family="Roboto-Regular, Roboto"><tspan x="-22.461" y="0">1502</tspan></text>
    <text id="_1502-4" data-name="1502" transform="translate(1474 665)" font-size="20" font-family="Roboto-Regular, Roboto"><tspan x="-22.461" y="0">1502</tspan></text>
    <text id="_1502-5" data-name="1502" transform="translate(1474 743)" font-size="20" font-family="Roboto-Regular, Roboto"><tspan x="-22.461" y="0">1502</tspan></text>
    <text id="Rp._15.000" data-name="Rp. 15.000" transform="translate(1696 439)" font-size="20" font-family="Roboto-Regular, Roboto"><tspan x="-47.583" y="0">Rp. 15.000</tspan></text>
    <text id="Rp._15.000-2" data-name="Rp. 15.000" transform="translate(1696 517)" font-size="20" font-family="Roboto-Regular, Roboto"><tspan x="-47.583" y="0">Rp. 15.000</tspan></text>
    <text id="Rp._15.000-3" data-name="Rp. 15.000" transform="translate(1696 595)" font-size="20" font-family="Roboto-Regular, Roboto"><tspan x="-47.583" y="0">Rp. 15.000</tspan></text>
    <text id="Rp._15.000-4" data-name="Rp. 15.000" transform="translate(1696 663)" font-size="20" font-family="Roboto-Regular, Roboto"><tspan x="-47.583" y="0">Rp. 15.000</tspan></text>
    <text id="Rp._15.000-5" data-name="Rp. 15.000" transform="translate(1696 741)" font-size="20" font-family="Roboto-Regular, Roboto"><tspan x="-47.583" y="0">Rp. 15.000</tspan></text>
    <g id="Group_18" data-name="Group 18" transform="translate(-17 -14)">
      <g id="Rectangle_13" data-name="Rectangle 13" transform="translate(1630 264)" fill="#fff" stroke="#707070" stroke-width="2">
        <rect width="156" height="58" rx="27" stroke="none"/>
        <rect x="1" y="1" width="154" height="56" rx="26" fill="none"/>
      </g>
      <g id="Icon_feather-plus" data-name="Icon feather-plus" transform="translate(1644.5 277.5)">
        <path id="Path_9" data-name="Path 9" d="M18,7.5V24.712" transform="translate(-1.894)" fill="none" stroke="#000" stroke-linecap="round" stroke-linejoin="round" stroke-width="2"/>
        <path id="Path_10" data-name="Path 10" d="M7.5,18H24.712" transform="translate(0 -1.894)" fill="none" stroke="#000" stroke-linecap="round" stroke-linejoin="round" stroke-width="2"/>
      </g>
      <text id="Tambah" transform="translate(1722 300)" font-size="20" font-family="Roboto-Bold, Roboto" font-weight="700"><tspan x="-35.972" y="0">Tambah</tspan></text>
    </g>
    <g id="Group_19" data-name="Group 19" transform="translate(-17)">
      <g id="Rectangle_14" data-name="Rectangle 14" transform="translate(1552 250)" fill="#fff" stroke="#707070" stroke-width="3">
        <rect width="58" height="58" rx="24" stroke="none"/>
        <rect x="1.5" y="1.5" width="55" height="55" rx="22.5" fill="none"/>
      </g>
      <path id="Icon_material-refresh" data-name="Icon material-refresh" d="M34.076,10.835a16.461,16.461,0,1,0,4.279,15.738H34.076A12.338,12.338,0,1,1,22.453,10.115a12.169,12.169,0,0,1,8.682,3.662L24.51,20.4h14.4V6Z" transform="translate(1558.271 256.798)" fill="#514949"/>
    </g>
    <g id="Group_20" data-name="Group 20" transform="translate(555 345)">
      <circle id="Ellipse_2" data-name="Ellipse 2" cx="5" cy="5" r="5" transform="translate(1260 67)"/>
      <circle id="Ellipse_3" data-name="Ellipse 3" cx="5" cy="5" r="5" transform="translate(1260 79)"/>
      <circle id="Ellipse_4" data-name="Ellipse 4" cx="5" cy="5" r="5" transform="translate(1260 91)"/>
    </g>
    <g id="Group_21" data-name="Group 21" transform="translate(555 427)">
      <circle id="Ellipse_2-2" data-name="Ellipse 2" cx="5" cy="5" r="5" transform="translate(1260 67)"/>
      <circle id="Ellipse_3-2" data-name="Ellipse 3" cx="5" cy="5" r="5" transform="translate(1260 79)"/>
      <circle id="Ellipse_4-2" data-name="Ellipse 4" cx="5" cy="5" r="5" transform="translate(1260 91)"/>
    </g>
    <g id="Group_22" data-name="Group 22" transform="translate(555 505)">
      <circle id="Ellipse_2-3" data-name="Ellipse 2" cx="5" cy="5" r="5" transform="translate(1260 67)"/>
      <circle id="Ellipse_3-3" data-name="Ellipse 3" cx="5" cy="5" r="5" transform="translate(1260 79)"/>
      <circle id="Ellipse_4-3" data-name="Ellipse 4" cx="5" cy="5" r="5" transform="translate(1260 91)"/>
    </g>
    <g id="Group_23" data-name="Group 23" transform="translate(555 573)">
      <circle id="Ellipse_2-4" data-name="Ellipse 2" cx="5" cy="5" r="5" transform="translate(1260 67)"/>
      <circle id="Ellipse_3-4" data-name="Ellipse 3" cx="5" cy="5" r="5" transform="translate(1260 79)"/>
      <circle id="Ellipse_4-4" data-name="Ellipse 4" cx="5" cy="5" r="5" transform="translate(1260 91)"/>
    </g>
    <g id="Group_24" data-name="Group 24" transform="translate(555 651)">
      <circle id="Ellipse_2-5" data-name="Ellipse 2" cx="5" cy="5" r="5" transform="translate(1260 67)"/>
      <circle id="Ellipse_3-5" data-name="Ellipse 3" cx="5" cy="5" r="5" transform="translate(1260 79)"/>
      <circle id="Ellipse_4-5" data-name="Ellipse 4" cx="5" cy="5" r="5" transform="translate(1260 91)"/>
    </g>
    <g id="Group_25" data-name="Group 25" transform="translate(0 -83)">
      <g id="Rectangle_15" data-name="Rectangle 15" transform="translate(605 155)" fill="#fff" stroke="#707070" stroke-width="1">
        <rect width="808" height="952" rx="42" stroke="none"/>
        <rect x="0.5" y="0.5" width="807" height="951" rx="41.5" fill="none"/>
      </g>
      <text id="Tambah_Produk" data-name="Tambah Produk" transform="translate(857 238)" font-size="35" font-family="Roboto-Bold, Roboto" font-weight="700"><tspan x="-123.568" y="0">Tambah Produk</tspan></text>
      <path id="Icon_metro-cancel" data-name="Icon metro-cancel" d="M17.995,1.928A15.424,15.424,0,1,0,33.419,17.352,15.424,15.424,0,0,0,17.995,1.928Zm0,27.956A12.532,12.532,0,1,1,30.527,17.352,12.532,12.532,0,0,1,17.995,29.885ZM22.815,9.64l-4.82,4.82-4.82-4.82-2.892,2.892,4.82,4.82-4.82,4.82,2.892,2.892,4.82-4.82,4.82,4.82,2.892-2.892-4.82-4.82,4.82-4.82Z" transform="translate(1334.429 199.072)"/>
      <line id="Line_10" data-name="Line 10" x2="248" transform="translate(733.5 258.5)" fill="none" stroke="#707070" stroke-width="1"/>
      <text id="Informasi_Pr_oduk" data-name="Informasi Pr oduk" transform="translate(693 368)" font-size="27" font-family="Roboto-Regular, Roboto"><tspan x="0" y="0">Informasi Pr oduk</tspan></text>
      <text id="Lainnya" transform="translate(1215 368)" font-size="27" font-family="Roboto-Bold, Roboto" font-weight="700"><tspan x="0" y="0">Lainnya</tspan></text>
      <text id="Harga_Jual-2" data-name="Harga Jual" transform="translate(981 368)" font-size="27" font-family="Roboto-Regular, Roboto"><tspan x="0" y="0">Harga Jual</tspan></text>
      <line id="Line_11" data-name="Line 11" x2="630" transform="translate(692.5 402.496)" fill="none" stroke="#707070" stroke-width="1"/>
      <line id="Line_12" data-name="Line 12" x2="132" transform="translate(1190.5 402.496)" fill="none" stroke="#707070" stroke-width="3"/>
      <line id="Line_13" data-name="Line 13" x2="630" transform="translate(692.5 522.234)" fill="none" stroke="#707070" stroke-width="1"/>
      <line id="Line_16" data-name="Line 16" x2="630" transform="translate(692.5 821.581)" fill="none" stroke="#707070" stroke-width="1"/>
      <line id="Line_14" data-name="Line 14" x2="629.5" transform="translate(693 665.493)" fill="none" stroke="#707070" stroke-width="1"/>
      <text id="Tipe_Pajak_Pembelian" data-name="Tipe Pajak Pembelian" transform="translate(693 459)" font-size="22" font-family="Roboto-Regular, Roboto"><tspan x="0" y="0">Tipe Pajak Pembelian</tspan></text>
      <text id="Deskripsi" transform="translate(693 750)" font-size="22" font-family="Roboto-Regular, Roboto"><tspan x="0" y="0">Deskripsi</tspan></text>
      <text id="Tipe_Pajak_Penjualan" data-name="Tipe Pajak Penjualan" transform="translate(693 603)" font-size="22" font-family="Roboto-Regular, Roboto"><tspan x="0" y="0">Tipe Pajak Penjualan</tspan></text>
      <g id="Rectangle_16" data-name="Rectangle 16" transform="translate(1173 961)" stroke="#707070" stroke-width="1">
        <rect width="164" height="72" rx="29" stroke="none"/>
        <rect x="0.5" y="0.5" width="163" height="71" rx="28.5" fill="none"/>
      </g>
      <g id="Rectangle_17" data-name="Rectangle 17" transform="translate(981 961)" fill="#636363" stroke="#707070" stroke-width="1">
        <rect width="164" height="72" rx="33" stroke="none"/>
        <rect x="0.5" y="0.5" width="163" height="71" rx="32.5" fill="none"/>
      </g>
      <text id="Submit" transform="translate(1218 1007)" fill="#fff" font-size="22" font-family="Roboto-Regular, Roboto"><tspan x="0" y="0">Submit</tspan></text>
      <text id="Cancel" transform="translate(1026 1007)" fill="#fff" font-size="22" font-family="Roboto-Regular, Roboto"><tspan x="0" y="0">Cancel</tspan></text>
      <g id="Icon_feather-plus-2" data-name="Icon feather-plus" transform="translate(688 213)">
        <path id="Path_9-2" data-name="Path 9" d="M18,7.5v32" transform="translate(-2 -7.5)" fill="none" stroke="#000" stroke-linecap="round" stroke-linejoin="round" stroke-width="3"/>
        <path id="Path_10-2" data-name="Path 10" d="M7.5,18h32" transform="translate(-7.5 -2)" fill="none" stroke="#000" stroke-linecap="round" stroke-linejoin="round" stroke-width="3"/>
      </g>
      <path id="Icon_material-keyboard-arrow-down" data-name="Icon material-keyboard-arrow-down" d="M11.115,11.76,18,18.63l6.885-6.87L27,13.875l-9,9-3.806-3.806L9,13.875Z" transform="translate(1278 605.24)"/>
      <path id="Icon_material-keyboard-arrow-down-2" data-name="Icon material-keyboard-arrow-down" d="M11.115,11.76,18,18.63l6.885-6.87L27,13.875l-9,9-3.806-3.806L9,13.875Z" transform="translate(1278 605.24)"/>
      <path id="Icon_material-keyboard-arrow-down-3" data-name="Icon material-keyboard-arrow-down" d="M11.115,11.76,18,18.63l6.885-6.87L27,13.875l-9,9-3.806-3.806L9,13.875Z" transform="translate(1278 462.24)"/>
    </g>
    <g id="Ellipse_14" data-name="Ellipse 14" transform="translate(19 437)" fill="#9e9999" stroke="#707070" stroke-width="1" opacity="0.42">
      <circle cx="31" cy="31" r="31" stroke="none"/>
      <circle cx="31" cy="31" r="30.5" fill="none"/>
    </g>
  </g>
</svg>
